<?xml version="1.0" standalone="no"?>
<!DOCTYPE svg PUBLIC "-//W3C//DTD SVG 20010904//EN"
 "http://www.w3.org/TR/2001/REC-SVG-20010904/DTD/svg10.dtd">
<svg version="1.0" xmlns="http://www.w3.org/2000/svg"
 width="4000.000000pt" height="4000.000000pt" viewBox="0 0 4000.000000 4000.000000"
 preserveAspectRatio="xMidYMid meet">
<metadata>
Created by potrace 1.14, written by Peter Selinger 2001-2017
</metadata>
<g transform="translate(0.000000,4000.000000) scale(0.100000,-0.100000)"
fill="#000000" stroke="none">
<path d="M0 20000 l0 -20000 20000 0 20000 0 0 20000 0 20000 -20000 0 -20000
0 0 -20000z m20165 11250 c244 -22 540 -94 850 -205 170 -61 298 -111 385
-149 41 -19 134 -60 205 -91 154 -68 776 -376 1200 -593 625 -321 1344 -677
1600 -792 28 -12 138 -63 245 -112 107 -50 272 -123 365 -164 94 -41 179 -79
190 -84 59 -26 314 -128 447 -179 84 -33 254 -98 378 -146 314 -122 849 -301
1555 -520 238 -74 441 -129 980 -265 1006 -254 1221 -312 1269 -345 l31 -21
-3 -424 c-5 -809 -31 -1569 -67 -1979 -67 -756 -269 -2115 -446 -2995 -40
-200 -140 -629 -204 -871 -248 -952 -297 -1115 -570 -1910 -151 -440 -227
-636 -455 -1185 -201 -483 -245 -577 -541 -1175 -120 -242 -259 -514 -309
-605 -183 -329 -285 -508 -362 -632 -43 -70 -101 -167 -130 -215 -184 -312
-551 -871 -828 -1258 -74 -104 -142 -201 -151 -215 -59 -91 -689 -890 -848
-1074 -47 -55 -130 -152 -185 -215 -336 -395 -533 -609 -885 -964 -571 -576
-1005 -972 -1535 -1402 -55 -44 -153 -125 -220 -179 -124 -101 -404 -314 -556
-422 -47 -33 -125 -90 -175 -126 -118 -85 -630 -427 -765 -510 -165 -102 -233
-142 -390 -228 -106 -59 -187 -106 -223 -132 -15 -11 -43 -24 -62 -29 -29 -8
-42 -5 -91 21 -31 16 -62 30 -68 30 -7 0 -32 13 -57 28 -24 16 -125 70 -224
122 -214 111 -303 160 -450 250 -308 188 -630 395 -790 507 -221 156 -621 453
-780 581 -44 35 -87 69 -95 76 -219 172 -574 474 -840 715 -410 372 -1172
1148 -1508 1535 -471 542 -990 1202 -1292 1641 -57 83 -135 195 -173 250 -82
118 -329 498 -437 675 -42 69 -94 154 -117 190 -39 62 -260 443 -323 555 -458
823 -864 1697 -1217 2620 -350 913 -722 2155 -923 3075 -189 870 -350 1872
-470 2923 -76 670 -132 1716 -142 2666 l-3 265 33 23 c70 47 147 68 1312 363
794 202 908 235 1825 537 283 93 576 199 895 325 113 44 257 100 320 125 63
25 134 54 157 64 23 11 44 19 47 19 12 0 483 204 644 279 95 45 175 81 177 81
35 0 1172 562 1728 854 298 157 902 461 1060 535 198 92 546 230 747 296 232
75 563 151 782 179 127 17 337 19 483 6z"/>
</g>
</svg>
